<?xml version="1.0" standalone="no"?>
<!DOCTYPE svg PUBLIC "-//W3C//DTD SVG 20010904//EN"
 "http://www.w3.org/TR/2001/REC-SVG-20010904/DTD/svg10.dtd">
<svg version="1.0" xmlns="http://www.w3.org/2000/svg"
 width="293.000000pt" height="200.000000pt" viewBox="0 0 293.000000 200.000000"
 preserveAspectRatio="xMidYMid meet">
<metadata>
Created by potrace 1.16, written by Peter Selinger 2001-2019
</metadata>
<g transform="translate(0.000000,200.000000) scale(0.100000,-0.100000)"
fill="#000000" stroke="none">
<path d="M0 1070 c0 -511 3 -930 8 -930 35 1 35 7 28 441 -4 233 -4 420 1 415
4 -4 10 -195 13 -424 l5 -417 27 2 c15 1 46 10 70 21 l43 19 -8 397 c-7 361
-6 419 7 405 2 -2 8 -185 12 -406 6 -376 8 -403 25 -403 23 0 105 35 113 49 4
5 13 8 20 5 7 -3 21 6 30 21 9 14 33 33 54 43 l37 17 0 98 c-1 53 3 97 7 97 4
0 9 -46 10 -101 l3 -102 75 -19 c74 -19 103 -16 106 11 1 6 2 16 3 22 1 7 13
9 37 5 22 -5 41 -3 50 5 7 6 30 9 49 7 38 -4 47 12 20 38 -41 41 34 135 90
114 17 -6 27 5 69 81 28 48 54 85 59 82 6 -3 15 0 21 8 6 8 26 21 43 28 18 7
33 16 33 20 0 4 42 5 93 4 132 -3 409 22 446 42 17 8 45 28 63 44 35 30 73 38
63 13 -3 -8 3 -16 15 -19 11 -3 20 -9 20 -15 0 -5 8 -5 18 1 35 19 390 36 477
23 104 -14 199 -44 253 -79 46 -30 49 -37 26 -60 -15 -15 -12 -18 32 -30 27
-8 56 -14 64 -14 13 -1 47 -11 188 -54 9 -4 12 94 12 466 l0 470 -27 -3 c-16
-2 -28 -9 -28 -16 0 -7 -5 -16 -10 -20 -6 -4 -19 -27 -30 -52 -23 -51 -71
-110 -90 -110 -8 0 -17 -9 -20 -20 -3 -11 -10 -20 -15 -20 -5 0 -13 -14 -18
-32 -7 -26 -15 -34 -42 -39 -55 -12 -234 -14 -250 -4 -8 5 -23 8 -32 7 -10 -2
-18 2 -18 8 0 7 -7 9 -16 6 -8 -3 -24 -1 -34 4 -20 11 -74 -6 -65 -20 11 -18
-53 -43 -116 -45 -19 -1 -39 -4 -45 -7 -11 -7 -160 6 -234 21 -30 6 -72 13
-92 16 -28 4 -38 11 -38 24 0 43 64 62 103 30 22 -17 46 -22 113 -27 80 -5 84
-4 84 16 0 11 7 23 16 26 28 11 3 26 -44 26 -53 0 -171 23 -201 40 -41 22 3
55 87 67 39 5 44 4 39 -10 -3 -9 1 -18 11 -22 27 -10 225 -19 265 -11 37 7 37
7 34 53 -2 26 -8 48 -15 51 -7 2 -12 21 -12 44 l0 40 68 -3 67 -4 -3 30 c-4
37 -54 91 -98 105 -30 10 -64 47 -64 70 0 13 75 13 139 -1 42 -9 55 -8 88 9
64 32 209 64 256 57 97 -15 232 -85 258 -132 7 -13 16 -23 21 -23 4 0 8 81 8
180 l0 180 -1465 0 -1465 0 0 -930z"/>
<path d="M1679 676 c-50 -18 -87 -44 -68 -49 8 -3 37 -11 64 -20 l50 -15 -86
6 c-96 5 -123 -8 -66 -32 19 -8 53 -30 74 -50 38 -34 40 -35 35 -11 -4 23 14
38 58 50 49 13 80 52 80 100 0 18 -7 24 -37 29 -51 8 -62 7 -104 -8z"/>
<path d="M1460 548 c-31 -9 -33 -11 -15 -21 10 -5 40 -11 65 -11 l45 -1 0 -43
c0 -40 4 -46 47 -77 48 -35 73 -63 47 -53 -8 3 -40 14 -72 24 -53 16 -59 17
-74 2 -18 -18 -11 -48 11 -48 13 0 219 -67 259 -85 27 -11 20 7 -17 52 -24 28
-32 43 -25 50 8 8 7 18 -1 33 -10 19 -9 22 9 27 28 7 19 19 -40 48 -27 14 -49
30 -49 35 0 9 -123 73 -145 76 -5 0 -26 -3 -45 -8z"/>
<path d="M1469 303 c-1 -5 -1 -11 0 -15 0 -5 -8 -17 -19 -28 -12 -12 -18 -25
-15 -30 4 -6 0 -10 -7 -11 -7 -1 -22 -2 -33 -3 -14 -1 -21 -10 -25 -31 l-6
-30 -17 27 c-10 14 -24 29 -32 32 -7 2 3 -20 23 -49 21 -30 40 -54 43 -55 3 0
4 22 1 50 -3 33 -1 50 7 50 7 0 11 -25 11 -70 0 -42 -4 -70 -10 -70 -6 0 -23
20 -38 45 -15 24 -30 45 -34 45 -5 0 -8 -20 -8 -45 0 -25 -4 -45 -10 -45 -6 0
-10 29 -10 66 0 48 -3 65 -12 61 -9 -2 -13 -25 -13 -65 0 -75 -12 -79 -52 -17
-15 25 -31 45 -35 45 -5 0 -8 -22 -8 -50 0 -27 -1 -53 -2 -57 -1 -5 6 -9 15
-11 13 -3 17 4 17 28 l0 32 30 -32 c23 -25 35 -31 54 -26 26 6 61 -18 50 -35
-3 -6 24 -9 73 -7 53 2 78 7 79 16 3 29 4 32 14 32 5 0 7 -7 3 -16 -10 -26 17
-34 117 -33 l95 0 -47 15 c-26 8 -50 19 -53 24 -11 17 29 11 95 -15 50 -19 82
-25 144 -25 70 1 79 3 64 14 -11 8 -18 26 -18 47 0 34 1 34 18 13 9 -12 28
-27 41 -34 l24 -13 -24 -13 c-20 -11 49 -13 454 -14 464 0 478 1 497 20 20 20
29 90 11 90 -4 0 -20 11 -35 25 -33 30 -46 31 -53 5 -4 -16 -14 -20 -44 -20
-72 0 -179 -37 -258 -89 -32 -21 -51 -23 -86 -9 -38 15 -71 49 -67 69 2 9 -4
22 -13 29 -8 7 -15 17 -15 22 0 5 -6 16 -14 23 -18 18 -77 3 -121 -31 -18 -13
-35 -24 -38 -24 -4 0 -7 16 -7 36 0 59 -13 73 -70 72 -28 0 -52 -4 -55 -9 -3
-5 -15 -3 -25 3 -15 10 -22 10 -32 0 -9 -9 -15 -9 -26 0 -11 10 -17 8 -28 -7
-8 -10 -14 -25 -14 -32 0 -8 -11 -2 -26 14 l-26 28 23 -43 c38 -70 49 -73 49
-13 0 28 5 51 10 51 6 0 10 -30 10 -70 0 -85 -12 -90 -55 -22 l-30 47 -3 -48
c-5 -71 -22 -57 -22 18 0 51 -3 65 -15 65 -12 0 -15 -14 -15 -65 0 -80 -13
-84 -55 -17 l-30 47 -3 -47 c-5 -74 -22 -56 -22 22 0 39 4 70 9 70 5 0 24 -24
42 -52 l34 -53 3 50 c2 27 9 53 15 58 7 4 0 5 -14 2 -16 -4 -50 3 -90 19 -61
23 -222 76 -234 76 -3 0 -6 -3 -6 -7z"/>
<path d="M545 240 c-3 -5 1 -11 7 -13 7 -3 -10 -6 -37 -6 -28 -1 -56 -6 -63
-13 -7 -7 -12 -34 -12 -60 0 -36 -4 -48 -15 -48 -11 0 -15 11 -15 38 0 36 -14
62 -32 62 -5 0 -8 -26 -6 -57 3 -58 3 -58 38 -64 33 -6 32 -6 -12 -8 l-47 -1
-4 68 -3 67 -2 -78 -2 -77 -23 15 c-15 9 -44 15 -80 14 -55 -2 -62 -6 -58 -36
1 -7 -15 -15 -36 -19 -103 -18 -38 -23 310 -24 276 0 377 3 377 11 0 29 35 37
128 32 86 -5 94 -4 90 13 -3 15 -12 17 -66 15 l-62 -2 0 70 0 70 53 4 c30 2
16 3 -35 4 -62 0 -91 -4 -99 -13 -9 -12 -16 -11 -39 3 -37 21 -60 5 -60 -43 0
-31 -3 -34 -29 -34 -39 0 -49 18 -17 30 54 20 17 59 -56 60 -27 0 -48 4 -48 9
0 12 -39 21 -45 11z"/>
</g>
</svg>
